<svg width="370" height="297" viewBox="0 0 370 297" xmlns="http://www.w3.org/2000/svg">
    <g fill-rule="nonzero" fill="none">
        <path d="M367.259 171H84.74c-1.513 0-2.741-1.217-2.741-2.717V2.717C82 1.217 83.228 0 84.741 0H367.26C368.772 0 370 1.217 370 2.717v165.566c0 1.5-1.228 2.717-2.741 2.717zM84.74 1.087c-.908 0-1.645.73-1.645 1.63v165.566c0 .9.737 1.63 1.645 1.63H367.26c.908 0 1.645-.73 1.645-1.63V2.717c0-.9-.737-1.63-1.645-1.63H84.74z" fill="#E6E6E6"/>
        <path d="M198.107 14c-1.17.019-2.107.908-2.107 2s.938 1.982 2.107 2h53.719c1.18.016 2.153-.862 2.174-1.964.02-1.102-.917-2.012-2.098-2.036h-53.796z" fill="#3F3D56"/>
        <path d="M265.43 12.105a.375.375 0 0 0 0 .505l1.432 1.533h-3.53c-.183 0-.332.16-.332.357 0 .197.149.357.332.357h3.53l-1.432 1.533a.375.375 0 0 0-.086.345c.031.124.12.22.236.253a.318.318 0 0 0 .322-.093l2-2.142a.375.375 0 0 0 0-.506l-2-2.142a.323.323 0 0 0-.236-.105.323.323 0 0 0-.236.105zM184.568 12.105c.13.14.13.365 0 .505l-1.43 1.533h3.527c.12 0 .23.067.29.178a.38.38 0 0 1 0 .357.33.33 0 0 1-.289.18h-3.528l1.43 1.532c.085.09.117.222.087.345a.346.346 0 0 1-.236.253.318.318 0 0 1-.322-.093l-2-2.142a.376.376 0 0 1 0-.506l2-2.142c.13-.14.341-.14.471 0z" fill="#E6E6E6"/>
        <path d="M82 182c-7.18 0-13-5.82-13-13s5.82-13 13-13 13 5.82 13 13-5.82 13-13 13z" fill="#3A95FF"/>
        <path d="M86.8 167.8h-3.6v-3.6a1.2 1.2 0 0 0-2.4 0v3.6h-3.6a1.2 1.2 0 1 0 0 2.4h3.6v3.6a1.2 1.2 0 0 0 2.4 0v-3.6h3.6a1.2 1.2 0 1 0 0-2.4z" fill="#FFF"/>
        <path fill="#F1F1F1" d="M104 34h37v26h-37zM156 34h37v26h-37zM207 34h37v26h-37zM259 34h37v26h-37zM310 34h37v26h-37zM104 79h37v26h-37zM156 79h37v26h-37zM207 79h37v26h-37zM259 79h37v26h-37zM310 79h37v26h-37zM106 125h37v26h-37zM156 125h37v26h-37zM207 125h37v26h-37zM259 125h37v26h-37zM310 125h37v26h-37z"/>
        <circle fill="#F4C32D" cx="214" cy="43" r="5"/>
        <circle fill="#3A95FF" cx="162" cy="87" r="5"/>
        <circle fill="#F4C32D" cx="214" cy="132" r="5"/>
        <circle fill="#8545FF" cx="267" cy="87" r="5"/>
        <circle fill="#3F3D56" cx="319" cy="87" r="5"/>
        <circle fill="#8545FF" cx="162" cy="132" r="5"/>
        <circle fill="#FFB8B8" cx="38" cy="169" r="9"/>
        <path d="M35.958 222c-.114 0-.229-.005-.344-.014a4.1 4.1 0 0 1-2.898-1.531 3.746 3.746 0 0 1-.736-3.088c.026-.125.06-.248.099-.369L18.736 201.9a2.906 2.906 0 0 1-.22-3.587l.025-.028 12.01-11.33c1.366-1.287 3.563-1.271 4.909.035a3.22 3.22 0 0 1-.079 4.737l-8.699 7.912 9.523 14.623c.18.01.36.03.537.064 2.041.39 3.441 2.195 3.239 4.177-.203 1.981-1.942 3.493-4.023 3.497zM54 291h3.388L59 275h-5z" fill="#FFB8B8"/>
        <path d="M52 291h9.161c1.549 0 3.034.51 4.129 1.418 1.095.908 1.71 2.14 1.71 3.424V296H52v-5z" fill="#2F2E41"/>
        <path fill="#FFB8B8" d="m8 284.86 3.976 2.14L23 274.158 17.131 271z"/>
        <path d="m9.68 285 6.84 4.376h.001c2.408 1.54 3.198 4.885 1.764 7.472L18.2 297 7 289.836 9.68 285zM57.419 286h-4.9a1.607 1.607 0 0 1-1.596-1.446l-4.94-46.735a.535.535 0 0 0-1.02-.165l-8.91 19.861-15.776 25.894a1.608 1.608 0 0 1-2.016.634l-6.302-2.791a1.613 1.613 0 0 1-.883-.989 1.626 1.626 0 0 1 .151-1.32L25.73 254.5l4.448-20.594c-1.399-8.931 4.598-22.209 4.659-22.342l.03-.065L51.383 205l.083.102c6.514 21.519 10.484 44.677 7.553 79.417A1.621 1.621 0 0 1 57.419 286z" fill="#2F2E41"/>
        <path d="m34.486 215-.079-.164c-.038-.08-3.821-7.957-6.738-16.378a12.279 12.279 0 0 1 .872-9.953 12.697 12.697 0 0 1 8.11-6.157c6.136-1.452 12.423 1.75 14.78 7.528 2.313 5.712 1.576 11.809.882 16.603l-.014.096-.089.042L34.486 215z" fill="#3A95FF"/>
        <path d="M49 163H34v-5.745c3.292-1.15 6.514-2.127 8.462 0 3.61 0 6.538 2.572 6.538 5.745z" fill="#2F2E41"/>
        <path d="M34 157c-8.594 0-11 10.744-11 16.806 0 3.38 1.533 4.59 3.941 4.998l.851-4.525 1.992 4.72c.677.003 1.388-.01 2.125-.023l.675-1.388 1.507 1.363c6.033.009 10.909.886 10.909-5.145C45 167.744 42.89 157 34 157z" fill="#2F2E41"/>
        <path d="M72.51 168.081a4.033 4.033 0 0 1 .135 3.584 3.993 3.993 0 0 1-2.44 2.172 3.713 3.713 0 0 1-.38.097l-7.331 19.086a3.093 3.093 0 0 1-3.134 1.97l-.037-.007-15.891-4.815c-1.807-.547-2.83-2.465-2.286-4.283a3.412 3.412 0 0 1 4.315-2.282l11.244 3.633 8.705-15.53a3.83 3.83 0 0 1-.196-.499 4.018 4.018 0 0 1 2.242-4.886 3.973 3.973 0 0 1 5.054 1.76z" fill="#FFB8B8"/>
        <path d="M73.619 297H.38c-.21 0-.381-.224-.381-.5s.17-.5.381-.5H73.62c.21 0 .381.224.381.5s-.17.5-.381.5z" fill="#CCC"/>
    </g>
</svg>
