<svg width="370" height="200" viewBox="0 0 370 200" xmlns="http://www.w3.org/2000/svg">
    <g fill-rule="nonzero" fill="none">
        <path d="M53 173h262v-15.468c0-3.23-3.975-6.41-10.906-8.725l-.071-.023c-4.68-1.618-34.594-13.124-50.775-12.776-8.547.183-15.865 1.602-21.75 4.217-18.316 8.144-42.377 11.152-55.09 8.788-11.202-2.083-41.957-5.528-53.321-5.372-15.915.214-15.962 2.818-32.299 11.222-6.24 3.208-8.573 3.61-37.788 6.168V173zM10.06 149.36c-.585-8.55 3.105-17.186 10.752-20.36-1.546 8.809.36 18.597 5.27 27.084 1.913 3.305 4.37 6.834 3.847 10.287-.326 2.149-1.812 3.855-3.628 4.966-1.817 1.11-3.957 1.704-6.071 2.286l-.365.377c-5.025-7.654-9.22-16.09-9.805-24.64z" fill="#F2F2F2"/>
        <path d="M20.781 129.335c-3.416 5.75-4.935 12.603-4.303 19.424.105 1.558.424 3.09.948 4.544a10.092 10.092 0 0 0 2.561 3.763c1.03.98 2.172 1.868 2.996 3.071.822 1.186 1.167 2.686.956 4.156-.24 1.723-1.056 3.162-1.904 4.533-.941 1.52-1.943 3.081-2.114 5.039-.02.237-.368.136-.347-.1.297-3.406 2.924-5.476 3.808-8.578a5.687 5.687 0 0 0-.477-4.554c-.768-1.272-1.945-2.19-2.994-3.173a10.745 10.745 0 0 1-2.62-3.596 15.634 15.634 0 0 1-1.101-4.513 34.084 34.084 0 0 1 .432-10.074 30.74 30.74 0 0 1 3.883-10.213c.115-.19.39.083.276.27z" fill="#FFF"/>
        <path d="M15.791 146.998c-2.51-.47-4.433-2.407-4.79-4.826-.027-.23.348-.23.375 0 .328 2.254 2.124 4.056 4.464 4.482a.181.181 0 0 1 .146.105.167.167 0 0 1-.024.174.186.186 0 0 1-.17.065zM20.054 156.659c1.515-1.32 2.475-3.332 2.638-5.531.019-.224.326-.129.307.095-.173 2.288-1.176 4.38-2.756 5.747-.15.128-.337-.184-.189-.311zM18.202 137.337c.827.414 1.78.3 2.517-.301.171-.15.39.21.22.36-.817.66-1.867.788-2.783.34-.097-.032-.161-.137-.156-.254a.184.184 0 0 1 .072-.127.136.136 0 0 1 .13-.018z" fill="#FFF"/>
        <path d="M48 143.618c-.113.089-.226.177-.338.27a30.853 30.853 0 0 0-4.146 3.985c-.099.11-.197.224-.292.337a32.738 32.738 0 0 0-6.435 12.186 33.96 33.96 0 0 0-1.074 5.548c-.285 2.614-.374 5.5-1.525 7.683-.116.229-.25.449-.398.66l-14.128.7c-.035-.015-.07-.026-.105-.04L19 175c.003-.1.01-.202.013-.301.001-.058.006-.116.008-.173.002-.039.004-.077.004-.112 0-.013.002-.026.003-.036 0-.035.003-.067.003-.1.031-.573.065-1.147.105-1.722l.002-.006a50.035 50.035 0 0 1 2.39-12.712c.043-.12.083-.244.131-.365a30.526 30.526 0 0 1 2.371-5.157 26.5 26.5 0 0 1 1.712-2.576 22.247 22.247 0 0 1 5.87-5.388c4.69-3.05 10.46-4.077 15.95-2.84.147.034.29.068.438.106z" fill="#F2F2F2"/>
        <path d="M47.87 143.374c-6.59 1.603-12.37 5.438-16.289 10.81a11.787 11.787 0 0 0-1.9 3.788 7.811 7.811 0 0 0 .163 4.282c.396 1.348.96 2.705 1.018 4.078a4.203 4.203 0 0 1-1.65 3.522c-1.308 1.05-3 1.53-4.682 1.942-1.866.457-3.817.903-5.201 2.161-.168.153-.445-.141-.277-.293 2.409-2.19 6.265-1.945 9.058-3.544 1.303-.747 2.32-1.909 2.367-3.492.04-1.384-.54-2.784-.953-4.148a8.467 8.467 0 0 1-.324-4.203 10.969 10.969 0 0 1 1.73-3.865 26.478 26.478 0 0 1 6.69-6.766 30.216 30.216 0 0 1 10.149-4.64c.23-.058.33.31.102.368z" fill="#FFF"/>
        <path d="M33.695 152.933c-1.77-1.907-2.214-4.843-1.045-6.858.115-.199.422.039.307.238-1.095 1.888-.672 4.596.983 6.378.175.188-.072.428-.245.242zM31.182 162.697c2.377.135 4.723-.467 6.492-1.664.167-.117.44.109.274.225-1.844 1.244-4.288 1.866-6.761 1.721-.247-.01-.25-.293-.005-.282zM41.318 146.078c.584.886 1.5 1.442 2.499 1.518.242.013.245.416.004.404-1.103-.09-2.115-.701-2.767-1.674a.219.219 0 0 1-.003-.285.185.185 0 0 1 .267.037z" fill="#FFF"/>
        <path d="M354.94 149.36c.585-8.55-3.105-17.186-10.752-20.36 1.546 8.809-.36 18.597-5.27 27.084-1.913 3.305-4.37 6.834-3.847 10.287.326 2.149 1.812 3.855 3.628 4.966 1.817 1.11 3.957 1.704 6.071 2.286l.365.377c5.025-7.654 9.22-16.09 9.805-24.64z" fill="#F2F2F2"/>
        <path d="M345.219 129.335c3.416 5.75 4.935 12.603 4.303 19.424a16.736 16.736 0 0 1-.948 4.544 10.092 10.092 0 0 1-2.561 3.763c-1.03.98-2.172 1.868-2.996 3.071-.822 1.186-1.167 2.686-.956 4.156.24 1.723 1.056 3.162 1.904 4.533.941 1.52 1.943 3.081 2.114 5.039.02.237.368.136.347-.1-.297-3.406-2.924-5.476-3.808-8.578a5.687 5.687 0 0 1 .477-4.554c.768-1.272 1.945-2.19 2.994-3.173a10.745 10.745 0 0 0 2.62-3.596c.587-1.43.959-2.953 1.101-4.513.356-3.361.21-6.764-.432-10.074a30.74 30.74 0 0 0-3.883-10.213c-.115-.19-.39.083-.276.27z" fill="#FFF"/>
        <path d="M349.209 146.998c2.51-.47 4.433-2.407 4.79-4.826.027-.23-.348-.23-.375 0-.328 2.254-2.124 4.056-4.464 4.482a.181.181 0 0 0-.146.105.167.167 0 0 0 .024.174c.04.05.106.074.17.065zM344.946 156.659c-1.515-1.32-2.475-3.332-2.638-5.531-.019-.224-.326-.129-.307.095.173 2.288 1.176 4.38 2.756 5.747.15.128.337-.184.189-.311zM347.798 137.337c-.827.414-1.78.3-2.517-.301-.171-.15-.39.21-.22.36.817.66 1.867.788 2.783.34.097-.032.161-.137.156-.254a.184.184 0 0 0-.072-.127.136.136 0 0 0-.13-.018z" fill="#FFF"/>
        <path d="M317 143.618c.113.089.226.177.338.27a30.853 30.853 0 0 1 4.146 3.985c.099.11.197.224.292.337a32.738 32.738 0 0 1 6.435 12.186 33.96 33.96 0 0 1 1.074 5.548c.285 2.614.374 5.5 1.525 7.683.116.229.25.449.398.66l14.128.7c.035-.015.07-.026.105-.04L346 175c-.003-.1-.01-.202-.013-.301-.001-.058-.006-.116-.008-.173-.002-.039-.004-.077-.004-.112a.483.483 0 0 0-.003-.036c0-.035-.003-.067-.003-.1-.031-.573-.065-1.147-.105-1.722l-.002-.006a50.035 50.035 0 0 0-2.39-12.712c-.043-.12-.083-.244-.131-.365a30.526 30.526 0 0 0-2.371-5.157 26.5 26.5 0 0 0-1.712-2.576 22.247 22.247 0 0 0-5.87-5.388c-4.69-3.05-10.46-4.077-15.95-2.84-.147.034-.29.068-.438.106z" fill="#F2F2F2"/>
        <path d="M317.13 143.374c6.59 1.603 12.37 5.438 16.289 10.81a11.787 11.787 0 0 1 1.9 3.788 7.811 7.811 0 0 1-.163 4.282c-.396 1.348-.96 2.705-1.018 4.078a4.203 4.203 0 0 0 1.65 3.522c1.308 1.05 3 1.53 4.682 1.942 1.866.457 3.817.903 5.201 2.161.168.153.445-.141.277-.293-2.409-2.19-6.265-1.945-9.058-3.544-1.303-.747-2.32-1.909-2.367-3.492-.04-1.384.54-2.784.953-4.148a8.467 8.467 0 0 0 .324-4.203 10.969 10.969 0 0 0-1.73-3.865 26.478 26.478 0 0 0-6.69-6.766 30.216 30.216 0 0 0-10.149-4.64c-.23-.058-.33.31-.102.368z" fill="#FFF"/>
        <path d="M332.305 152.933c1.77-1.907 2.214-4.843 1.045-6.858-.115-.199-.422.039-.307.238 1.095 1.888.672 4.596-.983 6.378-.175.188.072.428.245.242zM334.818 162.697c-2.377.135-4.723-.467-6.492-1.664-.167-.117-.44.109-.274.225 1.844 1.244 4.288 1.866 6.761 1.721.247-.01.25-.293.005-.282zM323.682 146.078c-.584.886-1.5 1.442-2.499 1.518-.242.013-.245.416-.004.404 1.103-.09 2.115-.701 2.767-1.674a.219.219 0 0 0 .003-.285.185.185 0 0 0-.267.037z" fill="#FFF"/>
        <path fill="#E6E6E6" d="M21 108h2v1h-2zM340 109h-5.115v-1H340v1zm-10.23 0h-5.114v-1h5.115v1zm-10.229 0h-5.115v-1h5.115v1zm-10.23 0h-5.114v-1h5.115v1zm-10.229 0h-5.115v-1h5.115v1zm-10.23 0h-5.114v-1h5.115v1zm-10.229 0h-5.115v-1h5.115v1zm-10.23 0h-5.114v-1h5.115v1zm-10.229 0h-5.115v-1h5.115v1zm-10.23 0h-5.114v-1h5.115v1zm-10.229 0h-5.115v-1h5.115v1zm-10.23 0h-5.114v-1h5.115v1zm-10.229 0h-5.115v-1h5.115v1zm-10.23 0h-5.114v-1h5.114v1zm-10.229 0h-5.115v-1h5.115v1zm-10.23 0h-5.114v-1h5.114v1zm-10.229 0h-5.115v-1h5.115v1zm-10.23 0h-5.114v-1h5.115v1zm-10.23 0h-5.114v-1h5.115v1zm-10.228 0h-5.115v-1h5.115v1zm-10.23 0h-5.115v-1h5.115v1zm-10.23 0h-5.114v-1h5.114v1zm-10.23 0h-5.114v-1h5.115v1zm-10.229 0h-5.114v-1h5.114v1zm-10.23 0h-5.114v-1h5.115v1zm-10.229 0h-5.114v-1h5.114v1zm-10.23 0h-5.114v-1h5.115v1zm-10.229 0H58.69v-1h5.114v1zm-10.23 0H48.46v-1h5.115v1zm-10.229 0H38.23v-1h5.114v1zm-10.23 0H28v-1h5.115v1zM346 108h2v1h-2zM21 102h2v1h-2zM340 103h-5.115v-1H340v1zm-10.23 0h-5.114v-1h5.115v1zm-10.229 0h-5.115v-1h5.115v1zm-10.23 0h-5.114v-1h5.115v1zm-10.229 0h-5.115v-1h5.115v1zm-10.23 0h-5.114v-1h5.115v1zm-10.229 0h-5.115v-1h5.115v1zm-10.23 0h-5.114v-1h5.115v1zm-10.229 0h-5.115v-1h5.115v1zm-10.23 0h-5.114v-1h5.115v1zm-10.229 0h-5.115v-1h5.115v1zm-10.23 0h-5.114v-1h5.115v1zm-10.229 0h-5.115v-1h5.115v1zm-10.23 0h-5.114v-1h5.114v1zm-10.229 0h-5.115v-1h5.115v1zm-10.23 0h-5.114v-1h5.114v1zm-10.229 0h-5.115v-1h5.115v1zm-10.23 0h-5.114v-1h5.115v1zm-10.23 0h-5.114v-1h5.115v1zm-10.228 0h-5.115v-1h5.115v1zm-10.23 0h-5.115v-1h5.115v1zm-10.23 0h-5.114v-1h5.114v1zm-10.23 0h-5.114v-1h5.115v1zm-10.229 0h-5.114v-1h5.114v1zm-10.23 0h-5.114v-1h5.115v1zm-10.229 0h-5.114v-1h5.114v1zm-10.23 0h-5.114v-1h5.115v1zm-10.229 0H58.69v-1h5.114v1zm-10.23 0H48.46v-1h5.115v1zm-10.229 0H38.23v-1h5.114v1zm-10.23 0H28v-1h5.115v1zM346 102h2v1h-2zM21 90h2v1h-2zM340 91h-5.115v-1H340v1zm-10.23 0h-5.114v-1h5.115v1zm-10.229 0h-5.115v-1h5.115v1zm-10.23 0h-5.114v-1h5.115v1zm-10.229 0h-5.115v-1h5.115v1zm-10.23 0h-5.114v-1h5.115v1zm-10.229 0h-5.115v-1h5.115v1zm-10.23 0h-5.114v-1h5.115v1zm-10.229 0h-5.115v-1h5.115v1zm-10.23 0h-5.114v-1h5.115v1zm-10.229 0h-5.115v-1h5.115v1zm-10.23 0h-5.114v-1h5.115v1zm-10.229 0h-5.115v-1h5.115v1zm-10.23 0h-5.114v-1h5.114v1zm-10.229 0h-5.115v-1h5.115v1zm-10.23 0h-5.114v-1h5.114v1zm-10.229 0h-5.115v-1h5.115v1zm-10.23 0h-5.114v-1h5.115v1zm-10.23 0h-5.114v-1h5.115v1zm-10.228 0h-5.115v-1h5.115v1zm-10.23 0h-5.115v-1h5.115v1zm-10.23 0h-5.114v-1h5.114v1zm-10.23 0h-5.114v-1h5.115v1zm-10.229 0h-5.114v-1h5.114v1zm-10.23 0h-5.114v-1h5.115v1zm-10.229 0h-5.114v-1h5.114v1zm-10.23 0h-5.114v-1h5.115v1zm-10.229 0H58.69v-1h5.114v1zm-10.23 0H48.46v-1h5.115v1zm-10.229 0H38.23v-1h5.114v1zm-10.23 0H28v-1h5.115v1zM346 90h2v1h-2zM21 82h2v1h-2zM340 83h-5.115v-1H340v1zm-10.23 0h-5.114v-1h5.115v1zm-10.229 0h-5.115v-1h5.115v1zm-10.23 0h-5.114v-1h5.115v1zm-10.229 0h-5.115v-1h5.115v1zm-10.23 0h-5.114v-1h5.115v1zm-10.229 0h-5.115v-1h5.115v1zm-10.23 0h-5.114v-1h5.115v1zm-10.229 0h-5.115v-1h5.115v1zm-10.23 0h-5.114v-1h5.115v1zm-10.229 0h-5.115v-1h5.115v1zm-10.23 0h-5.114v-1h5.115v1zm-10.229 0h-5.115v-1h5.115v1zm-10.23 0h-5.114v-1h5.114v1zm-10.229 0h-5.115v-1h5.115v1zm-10.23 0h-5.114v-1h5.114v1zm-10.229 0h-5.115v-1h5.115v1zm-10.23 0h-5.114v-1h5.115v1zm-10.23 0h-5.114v-1h5.115v1zm-10.228 0h-5.115v-1h5.115v1zm-10.23 0h-5.115v-1h5.115v1zm-10.23 0h-5.114v-1h5.114v1zm-10.23 0h-5.114v-1h5.115v1zm-10.229 0h-5.114v-1h5.114v1zm-10.23 0h-5.114v-1h5.115v1zm-10.229 0h-5.114v-1h5.114v1zm-10.23 0h-5.114v-1h5.115v1zm-10.229 0H58.69v-1h5.114v1zm-10.23 0H48.46v-1h5.115v1zm-10.229 0H38.23v-1h5.114v1zm-10.23 0H28v-1h5.115v1zM346 82h2v1h-2zM21 63h2v1h-2zM340 64h-5.115v-1H340v1zm-10.23 0h-5.114v-1h5.115v1zm-10.229 0h-5.115v-1h5.115v1zm-10.23 0h-5.114v-1h5.115v1zm-10.229 0h-5.115v-1h5.115v1zm-10.23 0h-5.114v-1h5.115v1zm-10.229 0h-5.115v-1h5.115v1zm-10.23 0h-5.114v-1h5.115v1zm-10.229 0h-5.115v-1h5.115v1zm-10.23 0h-5.114v-1h5.115v1zm-10.229 0h-5.115v-1h5.115v1zm-10.23 0h-5.114v-1h5.115v1zm-10.229 0h-5.115v-1h5.115v1zm-10.23 0h-5.114v-1h5.114v1zm-10.229 0h-5.115v-1h5.115v1zm-10.23 0h-5.114v-1h5.114v1zm-10.229 0h-5.115v-1h5.115v1zm-10.23 0h-5.114v-1h5.115v1zm-10.23 0h-5.114v-1h5.115v1zm-10.228 0h-5.115v-1h5.115v1zm-10.23 0h-5.115v-1h5.115v1zm-10.23 0h-5.114v-1h5.114v1zm-10.23 0h-5.114v-1h5.115v1zm-10.229 0h-5.114v-1h5.114v1zm-10.23 0h-5.114v-1h5.115v1zm-10.229 0h-5.114v-1h5.114v1zm-10.23 0h-5.114v-1h5.115v1zm-10.229 0H58.69v-1h5.114v1zm-10.23 0H48.46v-1h5.115v1zm-10.229 0H38.23v-1h5.114v1zm-10.23 0H28v-1h5.115v1zM346 63h2v1h-2z"/>
        <path d="M143 39a23 23 0 1 1-23-23 22.899 22.899 0 0 1 23 23z" fill="#F2F2F2"/>
        <path d="m129.261 33.707-.112.21c.998-2.546.09-5.682-1.69-7.601-1.78-1.92-4.255-2.797-6.693-3.145-1.809-.33-3.67-.18-5.408.435-2.491.993-4.394 3.292-5.984 5.683-.727 1.094-1.441 2.341-1.369 3.708.067 1.27.795 2.346 1.391 3.422.596 1.077 1.094 2.412.666 3.587-.255.7-.793 1.204-1.23 1.777-.438.573-.797 1.347-.586 2.065.19.56.651.974 1.213 1.091a4.149 4.149 0 0 0 1.612-.04l13.893-2.17c1.916-.3 3.569-1.551 4.426-3.35a6.315 6.315 0 0 0-.129-5.672z" fill="#2F2E41"/>
        <circle fill="#FFB9B9" cx="118.5" cy="35.5" r="6.5"/>
        <path d="M136 54.976c-8.245 9.687-22.492 10.75-32 2.388l1.962-5.652c.903-2.046 2.827-3.41 5-3.546l1.248-.079 2.976-2.65s8.019-.295 7.9-.437l4.857 3.017-.004-.021 1.91.12c2.173.136 4.097 1.5 5 3.546L136 54.976z" fill="#434343"/>
        <path d="M124.973 29.18c-.18-.947-1.149-1.38-1.98-1.59a19.12 19.12 0 0 0-7.374-.404c-1.795.255-3.632.818-4.933 2.214a6.604 6.604 0 0 0-1.678 4.26 5.06 5.06 0 0 0 .609 2.707 2.516 2.516 0 0 0 2.091 1.344l.084.289a12.668 12.668 0 0 0 8.782-5.865 7.511 7.511 0 0 1-2.201 3.546 13.714 13.714 0 0 0 5.922-4.55c.413-.547.814-1.23.678-1.95z" fill="#2F2E41"/>
        <circle fill="#F2F2F2" cx="315" cy="47" r="23"/>
        <circle fill="#2F2E41" cx="308.5" cy="34.5" r="3.5"/>
        <circle fill="#2F2E41" cx="313" cy="42" r="8"/>
        <circle fill="#9E616A" cx="314.5" cy="43.5" r="6.5"/>
        <path d="M318.407 37.024a7.962 7.962 0 0 0-7.64-.094c-2.374 1.272-3.817 3.652-3.766 6.207 3.337.783 6.843 1.382 10.402.188l.84-1.921.496 1.922c1.084.414 2.17.764 3.257-.004.09-2.546-1.277-4.946-3.59-6.298z" fill="#2F2E41"/>
        <path d="M304.713 26.524a6.25 6.25 0 0 0-6.647 1.049c-1.791 1.656-2.654 4.121-2.298 6.567.353 2.448 1.806 4.557 3.145 6.617 1.34 2.06 2.648 4.318 2.647 6.793-.003 3.712-2.937 6.722-6.56 6.73 2.042.9 4.174 1.818 6.395 1.712 2.222-.107 4.55-1.57 4.912-3.818.261-1.62-.514-3.198-1.161-4.7a33.854 33.854 0 0 1-2.268-7.65c-.216-1.256-.357-2.578.043-3.787.654-1.839 2.405-3.024 4.313-2.919l.734-.676c.257-2.482-1.05-4.858-3.255-5.918z" fill="#2F2E41"/>
        <path d="M331 61.976c-8.245 9.687-22.492 10.75-32 2.388l1.962-5.652c.903-2.046 2.827-3.41 5-3.546l1.248-.079 2.976-2.65s8.019-.295 7.9-.437l4.857 3.017-.004-.021 1.91.12c2.173.136 4.097 1.5 5 3.546L331 61.976z" fill="#F4C32D"/>
        <path d="M272 23.04c-.023 12.703-10.338 22.982-23.04 22.96-12.703-.023-22.982-10.338-22.96-23.04.023-12.703 10.338-22.982 23.04-22.96A22.94 22.94 0 0 1 272 23.04z" fill="#F2F2F2"/>
        <path d="M238.4 14.953c.95-2.944 3.111-5.645 6.1-6.64 2.988-.996 7.364.52 9.61 2.698 4.11 3.982 5.113 17.665 2.29 21.989-.562-.029-2.5-.05-3.069-.071l-.804-2.606v2.58c-.905-.027-1.818-.046-2.737-.056-6.41-.077-11.607-5.07-11.764-11.301-.074-2.868 0-5.432.374-6.593z" fill="#2F2E41"/>
        <circle fill="#9E616A" cx="248.5" cy="18.5" r="6.5"/>
        <path d="M243 12.737 250.382 9c3.073 1.4 5.154 4.375 5.434 7.772L256 19l-3.091-.796-.339-2.849-.525 2.627-1.426-.367.013-4.423-1.427 4.42-5.095-1.183-1.11-3.692z" fill="#2F2E41"/>
        <path d="M267 36.976c-8.245 9.687-22.492 10.75-32 2.388l1.962-5.652c.903-2.046 2.827-3.41 5-3.546l1.248-.079 2.976-2.65s8.019-.295 7.9-.437l4.857 3.017-.004-.021 1.91.12c2.173.136 4.097 1.5 5 3.546L267 36.976z" fill="#3A95FF"/>
        <circle fill="#F2F2F2" cx="187" cy="59" r="23"/>
        <circle fill="#FFB6B6" cx="185" cy="55" r="7"/>
        <path d="M204 73.976c-8.245 9.687-22.492 10.75-32 2.388l1.962-5.652c.903-2.046 2.827-3.41 5-3.546l1.248-.079 2.976-2.65s8.019-.295 7.9-.437l4.857 3.017-.004-.021 1.91.12c2.173.136 4.097 1.5 5 3.546L204 73.976z" fill="#8545FF"/>
        <path d="M194.652 50.43c-.633-2.173-2.07-4.05-4.044-5.278-1.572-.965-3.535-1.458-5.316-.948-1.781.51-3.256 2.188-3.14 4a1.875 1.875 0 0 0-1.844.547 3.995 3.995 0 0 0-.905 1.758 10.743 10.743 0 0 0 .109 6.19l-.036.289c.87-.138 1.529-.854 1.939-1.616.41-.762.646-1.608 1.09-2.352.444-.743 1.182-1.407 2.062-1.43l-.078 1.291 2.272-1.123-.54 1.24 1.984-.795-.222 1.192a2.918 2.918 0 0 1 1.75-1.465 3.064 3.064 0 0 1 2.314.204c.79.511 1.36 1.28 1.603 2.165.24.882.37 1.79.384 2.701a9.097 9.097 0 0 0 .618-6.57z" fill="#2F2E41"/>
        <circle fill="#F2F2F2" cx="54" cy="69" r="23"/>
        <circle fill="#9E616A" cx="53" cy="65" r="7"/>
        <path d="M71 84.976c-8.245 9.687-22.492 10.75-32 2.388l1.962-5.652c.903-2.046 2.827-3.41 5-3.546l1.248-.079 2.976-2.65s8.019-.295 7.9-.437l4.857 3.017-.004-.021 1.91.12c2.173.136 4.097 1.5 5 3.546L71 84.976z" fill="#CFD9E4"/>
        <path d="M46.644 67.636c-.033-.09-.062-.182-.094-.272-.064.056-.125.114-.194.166l.288.106zM61.996 61.858c-.072-1.316-.752-2.541-1.87-3.365a4.289 4.289 0 0 1-1.144-.953 6.227 6.227 0 0 1-.389-.893c-.534-1.172-2.058-1.795-3.425-1.617-1.374.24-2.582.985-3.347 2.062a2.437 2.437 0 0 0-2.438.277c-.685.522-.977 1.364-.748 2.155-.708-.525-1.853-.105-2.295.626-.442.732-.372 1.627-.24 2.455A21.703 21.703 0 0 0 47.284 67c.689-.559.646-1.577.562-2.437-.087-.894-.035-1.986.814-2.427.82-.426 1.816.042 2.72.284 1.447.377 3 .152 4.252-.616.445-.326.912-.626 1.398-.897a1.774 1.774 0 0 1 1.627-.027c.397.315.663.746.754 1.221l1.045 3.262c1.034-.912 1.594-2.187 1.54-3.505z" fill="#2F2E41"/>
        <path fill="#3F3D56" d="M52 110h2v64h-2zM118 80h2v94h-2zM183 99h2v74h-2zM248 63h2v110h-2zM314 88h2v85h-2z"/>
        <circle fill="#434343" cx="118.5" cy="82.5" r="6.5"/>
        <circle fill="#3A95FF" cx="249.5" cy="64.5" r="6.5"/>
        <circle fill="#8545FF" cx="184.5" cy="100.5" r="6.5"/>
        <circle fill="#CFD9E4" cx="52.5" cy="109.5" r="6.5"/>
        <circle fill="#F4C32D" cx="315.5" cy="87.5" r="6.5"/>
        <path d="M361.89 174H8.22L6 175c0 .552.497 1 1.11 1h354.78c.613 0 1.11-.448 1.11-1s-.497-1-1.11-1z" fill="#3F3D56"/>
        <circle fill="#3F3D56" cx="6.5" cy="174.5" r="6.5"/>
        <circle fill="#E6E6E6" cx="52.5" cy="193.5" r="6.5"/>
        <circle fill="#E6E6E6" cx="118.5" cy="193.5" r="6.5"/>
        <circle fill="#E6E6E6" cx="184.5" cy="193.5" r="6.5"/>
        <circle fill="#E6E6E6" cx="248.5" cy="193.5" r="6.5"/>
        <circle fill="#E6E6E6" cx="315.5" cy="193.5" r="6.5"/>
        <circle fill="#3F3D56" cx="363.5" cy="174.5" r="6.5"/>
    </g>
</svg>
