<svg xmlns="http://www.w3.org/2000/svg" viewBox="0 0 211 168"><defs><style>.cls-1{fill:#afafaf;}.cls-2{fill:#6aaa05;}.cls-3{fill:none;stroke:#72c900;stroke-miterlimit:10;}</style></defs><g id="Layer_2" data-name="Layer 2"><g id="Layer_1-2" data-name="Layer 1"><rect class="cls-1" y="17" width="44" height="9"/><rect class="cls-1" x="84" y="43" width="44" height="9"/><rect class="cls-1" x="84" y="134" width="44" height="9"/><rect class="cls-1" y="64.33" width="44" height="9"/><rect class="cls-1" y="94.67" width="44" height="9"/><rect class="cls-1" y="142" width="44" height="9"/><rect class="cls-2" width="44" height="9"/><rect class="cls-2" x="84" y="26" width="44" height="9"/><rect class="cls-2" x="84" y="117" width="44" height="9"/><rect class="cls-2" x="167" y="71" width="44" height="9"/><rect class="cls-2" x="167" y="88" width="44" height="9"/><rect class="cls-2" y="47.33" width="44" height="9"/><rect class="cls-2" y="111.67" width="44" height="9"/><rect class="cls-2" y="159" width="44" height="9"/><path class="cls-3" d="M48.28,4.5c15.72,0,7.36,26,31,26"/><path class="cls-3" d="M131.28,30.5c15.72,0,7.36,45,31,45"/><path class="cls-3" d="M131.28,122.5c15.72,0,7.36-30,31-30"/><path class="cls-3" d="M48.28,163.5c15.72,0,7.36-25,31-25"/><path class="cls-3" d="M48.28,116.5c15.72,0,6.54,5,30.22,5"/><path class="cls-3" d="M48.28,51.5c15.72,0,7.36-4,31-4"/></g></g></svg>