<svg xmlns="http://www.w3.org/2000/svg" viewBox="0 0 212 148.95"><defs><style>.cls-1{opacity:0.14;}.cls-2{fill:#828282;}.cls-3{fill:none;stroke:#fff;stroke-miterlimit:10;}.cls-4,.cls-6{font-size:16.06px;font-family:MyriadPro-Regular, Myriad Pro;}.cls-4{fill:#fff;}.cls-5{letter-spacing:-0.08em;}.cls-6{fill:#ce0000;}.cls-7{opacity:0.12;}.cls-8{fill:#d1d1d1;}.cls-9{fill:#779dbc;}.cls-10{fill:#9b9b9b;}.cls-11{fill:#aecc9e;}.cls-12{fill:#d80707;}</style></defs><g id="Layer_2" data-name="Layer 2"><g id="Layer_1-2" data-name="Layer 1"><rect class="cls-1" x="90" y="45.95" width="122" height="103"/><rect class="cls-2" x="88" y="43.95" width="122" height="103"/><rect class="cls-3" x="99.74" y="67.95" width="14.21" height="14.21"/><rect class="cls-3" x="113.97" y="67.95" width="14.21" height="14.21"/><rect class="cls-3" x="128.2" y="67.95" width="14.21" height="14.21"/><rect class="cls-3" x="142.44" y="67.95" width="14.21" height="14.21"/><rect class="cls-3" x="156.67" y="67.95" width="14.21" height="14.21"/><rect class="cls-3" x="170.9" y="67.95" width="14.21" height="14.21"/><rect class="cls-3" x="185.14" y="67.95" width="14.21" height="14.21"/><rect class="cls-3" x="99.74" y="82.16" width="14.21" height="14.21"/><rect class="cls-3" x="113.97" y="82.16" width="14.21" height="14.21"/><rect class="cls-3" x="128.2" y="82.16" width="14.21" height="14.21"/><rect class="cls-3" x="142.44" y="82.16" width="14.21" height="14.21"/><rect class="cls-3" x="156.67" y="82.16" width="14.21" height="14.21"/><rect class="cls-3" x="170.9" y="82.16" width="14.21" height="14.21"/><rect class="cls-3" x="185.14" y="82.16" width="14.21" height="14.21"/><rect class="cls-3" x="99.74" y="96.36" width="14.21" height="14.21"/><rect class="cls-3" x="113.97" y="96.36" width="14.21" height="14.21"/><rect class="cls-3" x="128.2" y="96.36" width="14.21" height="14.21"/><rect class="cls-3" x="142.44" y="96.36" width="14.21" height="14.21"/><rect class="cls-3" x="156.67" y="96.36" width="14.21" height="14.21"/><rect class="cls-3" x="170.9" y="96.36" width="14.21" height="14.21"/><rect class="cls-3" x="185.14" y="96.36" width="14.21" height="14.21"/><rect class="cls-3" x="99.74" y="110.57" width="14.21" height="14.21"/><rect class="cls-3" x="113.97" y="110.57" width="14.21" height="14.21"/><rect class="cls-3" x="128.2" y="110.57" width="14.21" height="14.21"/><rect class="cls-3" x="142.44" y="110.57" width="14.21" height="14.21"/><rect class="cls-3" x="156.67" y="110.57" width="14.21" height="14.21"/><rect class="cls-3" x="170.9" y="110.57" width="14.21" height="14.21"/><rect class="cls-3" x="185.14" y="110.57" width="14.21" height="14.21"/><rect class="cls-3" x="99.74" y="124.78" width="14.21" height="14.21"/><rect class="cls-3" x="113.97" y="124.78" width="14.21" height="14.21"/><rect class="cls-3" x="128.2" y="124.78" width="14.21" height="14.21"/><rect class="cls-3" x="142.44" y="124.78" width="14.21" height="14.21"/><rect class="cls-3" x="156.67" y="124.78" width="14.21" height="14.21"/><rect class="cls-3" x="170.9" y="124.78" width="14.21" height="14.21"/><rect class="cls-3" x="185.14" y="124.78" width="14.21" height="14.21"/><text class="cls-4" transform="translate(133.39 62.52)">JU<tspan class="cls-5" x="16.33" y="0">L</tspan><tspan x="22.56" y="0">Y</tspan></text><text class="cls-6" transform="translate(188.46 121.72)">x</text><rect class="cls-7" x="1" y="2.95" width="115" height="67"/><path class="cls-8" d="M115,0H51.81A26.75,26.75,0,0,0,41,8.35c-7,9-4.58,23.14-4.58,23.14l.2,13.28H82.2V68H115Z"/><path class="cls-9" d="M12.79,44.42c1.37-8.2,10.15-15.62,11.32-23.82.61-4.28-.83-10.44-2.35-15.36C21.13,3.21,20.49,1.39,20,0H0V68H12.14C13.4,63,11.59,51.61,12.79,44.42Z"/><path class="cls-10" d="M82.2,44.77H36.62l-.2-13.28S34,17.35,41,8.35A26.75,26.75,0,0,1,51.81,0H20c.52,1.39,1.16,3.21,1.79,5.24,1.52,4.92,3,11.08,2.35,15.36-1.17,8.2-9.95,15.62-11.32,23.82-1.2,7.19.61,18.6-.65,23.53H82.2Z"/><path class="cls-11" d="M43.74,42H76.09V27.6s-8-2-8-6.12-2.15-4.3-4.68-4.3-19.92.41-19.72,13.09Z"/><path class="cls-12" d="M58.23,32.17a2.3,2.3,0,0,0-2.29,2.3,2.21,2.21,0,0,0,.29,1.11s2,4.44,2,4.47,2-4.47,2-4.47a2.29,2.29,0,0,0-2-3.41Zm0,3.1a.64.64,0,0,1-.64-.64.64.64,0,1,1,.64.64Z"/></g></g></svg>