<svg xmlns="http://www.w3.org/2000/svg" viewBox="0 0 168 147.63"><defs><style>.cls-1,.cls-2{opacity:0.12;}.cls-3{fill:#ba713a;}.cls-4{fill:#0b5400;}.cls-5{fill:#87430f;}.cls-6{fill:#004cd0;}.cls-7{fill:#ffb171;}.cls-8{fill:#8900e7;}.cls-9{fill:#774825;}.cls-10{fill:#d07500;}.cls-11{fill:#e70006;}.cls-12{fill:#ffd073;}.cls-13{fill:#ffc900;}.cls-14{fill:#862eff;}.cls-15{fill:#ffd773;}.cls-16{fill:#5cc1ff;}.cls-17{fill:#d8702a;}.cls-18{fill:#ff5cef;}</style></defs><g id="Layer_2" data-name="Layer 2"><g id="Layer_1-2" data-name="Layer 1"><g class="cls-1"><circle cx="30.94" cy="44.69" r="26.81"/><path d="M58.41,127.88a96.43,96.43,0,0,0,.72-11.69c0-11.15-1.89-36.61-5.1-45.13a35,35,0,0,1-47.21-.93c-3.42,8.7-5.44,34.51-5.44,46.06a96.46,96.46,0,0,0,.71,11.69Z"/></g><circle class="cls-2" cx="99.1" cy="11.22" r="9.84"/><path class="cls-2" d="M109.19,41.75a35.06,35.06,0,0,0,.26-4.29c0-4.09-.69-13.43-1.87-16.56a12.86,12.86,0,0,1-17.33-.34c-1.26,3.19-2,12.66-2,16.9a35.06,35.06,0,0,0,.26,4.29Z"/><circle class="cls-2" cx="128.38" cy="11.22" r="9.84"/><path class="cls-2" d="M138.46,41.75a35.06,35.06,0,0,0,.26-4.29c0-4.09-.69-13.43-1.86-16.56a12.86,12.86,0,0,1-17.33-.34c-1.26,3.19-2,12.66-2,16.9a35.06,35.06,0,0,0,.26,4.29Z"/><circle class="cls-2" cx="157.65" cy="11.22" r="9.84"/><path class="cls-2" d="M167.74,41.75a35.06,35.06,0,0,0,.26-4.29c0-4.09-.69-13.43-1.87-16.56a12.86,12.86,0,0,1-17.33-.34c-1.26,3.19-2,12.66-2,16.9a35.06,35.06,0,0,0,.26,4.29Z"/><circle class="cls-2" cx="99.1" cy="64.84" r="9.84"/><path class="cls-2" d="M109.19,95.38a35.18,35.18,0,0,0,.26-4.29c0-4.09-.69-13.44-1.87-16.57a12.86,12.86,0,0,1-17.33-.34c-1.26,3.2-2,12.67-2,16.91a35.18,35.18,0,0,0,.26,4.29Z"/><circle class="cls-2" cx="128.38" cy="64.84" r="9.84"/><path class="cls-2" d="M138.46,95.38a35.18,35.18,0,0,0,.26-4.29c0-4.09-.69-13.44-1.86-16.57a12.86,12.86,0,0,1-17.33-.34c-1.26,3.2-2,12.67-2,16.91a35.18,35.18,0,0,0,.26,4.29Z"/><circle class="cls-2" cx="157.65" cy="64.84" r="9.84"/><path class="cls-2" d="M167.74,95.38a35.18,35.18,0,0,0,.26-4.29c0-4.09-.69-13.44-1.87-16.57a12.86,12.86,0,0,1-17.33-.34c-1.26,3.2-2,12.67-2,16.91a35.18,35.18,0,0,0,.26,4.29Z"/><circle class="cls-2" cx="99.1" cy="117.09" r="9.84"/><path class="cls-2" d="M109.19,147.63a35.18,35.18,0,0,0,.26-4.29c0-4.09-.69-13.44-1.87-16.57a12.86,12.86,0,0,1-17.33-.34c-1.26,3.2-2,12.67-2,16.91a35.18,35.18,0,0,0,.26,4.29Z"/><circle class="cls-2" cx="128.38" cy="117.09" r="9.84"/><path class="cls-2" d="M138.46,147.63a35.18,35.18,0,0,0,.26-4.29c0-4.09-.69-13.44-1.86-16.57a12.86,12.86,0,0,1-17.33-.34c-1.26,3.2-2,12.67-2,16.91a35.18,35.18,0,0,0,.26,4.29Z"/><circle class="cls-3" cx="29.56" cy="43.31" r="26.81"/><path class="cls-4" d="M57,126.5a96.34,96.34,0,0,0,.71-11.69c0-11.14-1.88-36.6-5.09-45.13a35,35,0,0,1-47.21-.93C2,77.46,0,103.26,0,114.81A96.34,96.34,0,0,0,.71,126.5Z"/><circle class="cls-5" cx="97.73" cy="9.84" r="9.84"/><path class="cls-6" d="M107.81,40.38a35.18,35.18,0,0,0,.26-4.29c0-4.09-.69-13.44-1.86-16.57a12.86,12.86,0,0,1-17.33-.34c-1.26,3.2-2,12.67-2,16.91a35.18,35.18,0,0,0,.26,4.29Z"/><circle class="cls-7" cx="127" cy="9.84" r="9.84"/><path class="cls-8" d="M137.09,40.38a35.18,35.18,0,0,0,.26-4.29c0-4.09-.69-13.44-1.87-16.57a12.86,12.86,0,0,1-17.33-.34c-1.26,3.2-2,12.67-2,16.91a35.18,35.18,0,0,0,.26,4.29Z"/><circle class="cls-9" cx="156.28" cy="9.84" r="9.84"/><path class="cls-10" d="M166.36,40.38a35.16,35.16,0,0,0,.27-4.29c0-4.09-.7-13.44-1.87-16.57a12.86,12.86,0,0,1-17.33-.34c-1.26,3.2-2,12.67-2,16.91a35.18,35.18,0,0,0,.26,4.29Z"/><circle class="cls-7" cx="97.73" cy="63.47" r="9.84"/><path class="cls-11" d="M107.81,94a35.06,35.06,0,0,0,.26-4.29c0-4.09-.69-13.43-1.86-16.56a12.86,12.86,0,0,1-17.33-.34c-1.26,3.19-2,12.66-2,16.9A35.06,35.06,0,0,0,87.14,94Z"/><circle class="cls-12" cx="127" cy="63.47" r="9.84"/><path class="cls-13" d="M137.09,94a35.06,35.06,0,0,0,.26-4.29c0-4.09-.69-13.43-1.87-16.56a12.86,12.86,0,0,1-17.33-.34c-1.26,3.19-2,12.66-2,16.9a35.06,35.06,0,0,0,.26,4.29Z"/><circle class="cls-7" cx="156.28" cy="63.47" r="9.84"/><path class="cls-14" d="M166.36,94a35,35,0,0,0,.27-4.29c0-4.09-.7-13.43-1.87-16.56a12.86,12.86,0,0,1-17.33-.34c-1.26,3.19-2,12.66-2,16.9a35.06,35.06,0,0,0,.26,4.29Z"/><circle class="cls-15" cx="97.73" cy="115.72" r="9.84"/><path class="cls-16" d="M107.81,146.25a35.06,35.06,0,0,0,.26-4.29c0-4.09-.69-13.43-1.86-16.56a12.86,12.86,0,0,1-17.33-.34c-1.26,3.19-2,12.66-2,16.9a35.06,35.06,0,0,0,.26,4.29Z"/><circle class="cls-17" cx="127" cy="115.72" r="9.84"/><path class="cls-18" d="M137.09,146.25a35.06,35.06,0,0,0,.26-4.29c0-4.09-.69-13.43-1.87-16.56a12.86,12.86,0,0,1-17.33-.34c-1.26,3.19-2,12.66-2,16.9a35.06,35.06,0,0,0,.26,4.29Z"/></g></g></svg>