<svg
  width="270"
  height="266"
  viewBox="0 0 270 266"
  xmlns="http://www.w3.org/2000/svg"
>
    <g fill-rule="nonzero" fill="none">
        <circle fill="#F2F2F2" cx="39.5" cy="130.5" r="39.5" />
        <circle fill="#2F2E41" cx="39.5" cy="116.5" r="15.5" />
        <path
      d="M79 39.57C78.96 61.385 61.245 79.04 39.43 79 17.615 78.961-.04 61.245 0 39.43.039 17.615 17.755-.039 39.57 0A39.398 39.398 0 0 1 79 39.57z"
      fill="#F2F2F2"
    />
        <circle fill="#F2F2F2" cx="133.5" cy="130.5" r="39.5" />
        <circle fill="#F2F2F2" cx="133.5" cy="39.5" r="39.5" />
        <circle fill="#F2F2F2" cx="229.5" cy="39.5" r="39.5" />
        <circle fill="#F2F2F2" cx="230.5" cy="130.5" r="39.5" />
        <path
      d="M79 226.5c0 21.815-17.685 39.5-39.5 39.5S0 248.315 0 226.5 17.685 187 39.5 187A39.327 39.327 0 0 1 79 226.5z"
      fill="#F2F2F2"
    />
        <circle fill="#F2F2F2" cx="135.5" cy="226.5" r="39.5" />
        <path
      d="M21.68 26.516c1.615-5.3 5.289-10.162 10.369-11.954 5.08-1.792 12.52.938 16.338 4.857C55.374 26.589 57.08 51.217 52.28 59c-.955-.052-4.25-.09-5.216-.128l-1.366-4.69v4.644c-1.54-.049-3.091-.083-4.655-.101-10.894-.14-19.73-9.128-19.999-20.343-.125-5.162 0-9.777.637-11.866z"
      fill="#2F2E41"
    />
        <circle fill="#9E616A" cx="38.5" cy="33.5" r="11.5" />
        <path
      d="M30 22.353 43.06 16c5.438 2.38 9.118 7.438 9.614 13.212L53 33l-5.469-1.352-.6-4.844-.928 4.466-2.524-.624.024-7.52-2.525 7.515-9.014-2.012L30 22.353z"
      fill="#2F2E41"
    />
        <circle fill="#2F2E41" cx="122.5" cy="109.5" r="5.5" />
        <circle fill="#2F2E41" cx="130.5" cy="121.5" r="14.5" />
        <circle fill="#9E616A" cx="132.5" cy="124.5" r="11.5" />
        <path
      d="M139.771 112.92a12.891 12.891 0 0 0-13.241-.177c-4.116 2.387-6.617 6.848-6.528 11.64 5.785 1.467 11.861 2.59 18.03.35l1.457-3.6.858 3.603c1.879.776 3.762 1.432 5.646-.007.156-4.775-2.214-9.273-6.222-11.81z"
      fill="#2F2E41"
    />
        <path
      d="M116.166 94.94c-3.805-1.786-8.579-.948-11.747 1.852-3.168 2.801-4.674 7.36-4.062 11.599.624 4.324 3.192 8.049 5.559 11.687 2.367 3.639 4.68 7.626 4.677 11.997-.004 6.556-5.19 11.872-11.593 11.886 3.61 1.59 7.377 3.213 11.303 3.024 3.925-.189 8.04-2.772 8.68-6.742.462-2.86-.909-5.65-2.052-8.302a59.763 59.763 0 0 1-4.009-13.51c-.382-2.22-.63-4.554.077-6.69 1.156-3.247 4.25-5.34 7.622-5.154l1.297-1.195c.577-4.244-1.947-8.666-5.752-10.452zM212.041 24.749a37.957 37.957 0 0 1-2.604 8.502c-6.854 14.83 12.665 9.996 19.64 9.996 7.627 0 14.924 4.102 13.81-14.123C242.41 21.339 236.704 15 229.077 15c-6.514 0-15.673 2.961-17.036 9.749z"
      fill="#2F2E41"
    />
        <circle fill="#FFB6B6" cx="228.5" cy="31.5" r="11.5" />
        <path
      d="M221.229 18.92a12.891 12.891 0 0 1 13.241-.177c4.116 2.387 6.617 6.848 6.528 11.64-5.785 1.467-11.861 2.59-18.03.35l-1.457-3.6-.858 3.603c-1.879.776-3.762 1.432-5.646-.007-.156-4.775 2.214-9.273 6.222-11.81z"
      fill="#2F2E41"
    />
        <circle fill="#FFB8B8" cx="39.5" cy="119.5" r="14.5" />
        <circle fill="#9E616A" cx="134" cy="218" r="12" />
        <circle fill="#FFB8B8" cx="133.5" cy="31.5" r="12.5" />
        <path
      d="M146.21 22.692s3.332-6.296-3.998-6.868c0 0-6.248-5.603-12.617-1.024 0 0-3.474 0-5.374 3.885 0 0-2.732-1.024-3.332 1.717 0 0-2 5.724 0 10.875 1.999 5.15 2.663 5.723 2.663 5.723s-1.403-6.392 6.594-6.964c7.996-.573 15.332-5.525 15.999.771.666 6.296 1.399 3.452 1.399 3.452s6.33-8.992-1.334-11.567z"
      fill="#2F2E41"
    />
        <circle fill="#FFB6B6" cx="228.5" cy="122.5" r="12.5" />
        <path
      d="m55.724 216.991-.193.352c1.724-4.282.156-9.56-2.92-12.788-3.075-3.23-7.35-4.706-11.56-5.291-3.126-.435-6.37-.422-9.341.731-4.303 1.671-7.591 5.54-10.336 9.563-1.256 1.84-2.49 3.939-2.365 6.239.116 2.135 1.373 3.946 2.403 5.757 1.03 1.811 1.889 4.058 1.15 6.035-.44 1.178-1.37 2.026-2.126 2.99-.755.963-1.376 2.266-1.011 3.475a2.82 2.82 0 0 0 2.095 1.836c.913.214 1.86.074 2.785-.067L48.3 232.17a10.234 10.234 0 0 0 7.645-5.634 10.38 10.38 0 0 0-.222-9.544z"
      fill="#2F2E41"
    />
        <circle
      fill="#FFB9B9"
      transform="rotate(-80.783 37.77 219.978)"
      cx="37.77"
      cy="219.978"
      r="11.811"
    />
        <path
      d="M69 252.627c-14.17 16.144-38.658 17.916-55 3.98l3.372-9.42a10.118 10.118 0 0 1 8.594-5.91l2.145-.131 5.115-4.417s13.782-.493 13.578-.729l8.348 5.028-.007-.035 3.282.201a10.114 10.114 0 0 1 8.594 5.91L69 252.626zM165 252.627c-14.17 16.144-38.658 17.916-55 3.98l3.372-9.42a10.118 10.118 0 0 1 8.594-5.91l2.145-.131 5.115-4.417s13.782-.493 13.578-.729l8.348 5.028-.007-.035 3.282.201a10.114 10.114 0 0 1 8.594 5.91l1.979 5.523z"
      fill="#3A95FF"
    />
        <path
      d="M48.954 209.568c-.303-1.55-1.938-2.259-3.34-2.603a33.245 33.245 0 0 0-12.445-.66c-3.028.417-6.128 1.338-8.325 3.623a10.628 10.628 0 0 0-2.83 6.97 8.076 8.076 0 0 0 1.027 4.43c.79 1.293 2.138 2.231 3.53 2.198l.14.474c5.896-.794 11.372-4.34 14.82-9.598a12.242 12.242 0 0 1-3.715 5.804c3.98-1.54 7.44-4.118 9.994-7.447.697-.895 1.375-2.011 1.144-3.19z"
      fill="#2F2E41"
    />
        <path
      d="M69 156.627c-14.17 16.144-38.658 17.916-55 3.98l3.372-9.42a10.118 10.118 0 0 1 8.594-5.91l2.145-.131 5.115-4.417s13.782-.493 13.578-.729l8.348 5.028-.007-.035 3.282.201a10.114 10.114 0 0 1 8.594 5.91L69 156.626zM163 156.627c-14.17 16.144-38.658 17.916-55 3.98l3.372-9.42a10.118 10.118 0 0 1 8.594-5.91l2.145-.131 5.115-4.417s13.782-.493 13.578-.729l8.348 5.028-.007-.035 3.282.201a10.114 10.114 0 0 1 8.594 5.91l1.979 5.523zM260 156.627c-14.17 16.144-38.658 17.916-55 3.98l3.372-9.42a10.118 10.118 0 0 1 8.594-5.91l2.145-.131 5.115-4.417s13.782-.493 13.578-.729l8.348 5.028-.007-.035 3.282.201a10.114 10.114 0 0 1 8.594 5.91l1.979 5.523zM69 65.627c-14.17 16.144-38.658 17.916-55 3.98l3.372-9.42a10.118 10.118 0 0 1 8.594-5.91l2.145-.131 5.115-4.417s13.782-.493 13.578-.729l8.348 5.028-.007-.035 3.282.201a10.114 10.114 0 0 1 8.594 5.91L69 65.626zM163 65.627c-14.17 16.144-38.658 17.916-55 3.98l3.372-9.42a10.118 10.118 0 0 1 8.594-5.91l2.145-.131 5.115-4.417s13.782-.493 13.578-.729l8.348 5.028-.007-.035 3.282.201a10.114 10.114 0 0 1 8.594 5.91L163 65.626zM260 65.627c-14.17 16.144-38.658 17.916-55 3.98l3.372-9.42a10.118 10.118 0 0 1 8.594-5.91l2.145-.131 5.115-4.417s13.782-.493 13.578-.729l8.348 5.028-.007-.035 3.282.201a10.114 10.114 0 0 1 8.594 5.91L260 65.626z"
      fill="#3A95FF"
    />
        <path
      d="M241.434 114.378c-1.028-3.846-3.365-7.167-6.571-9.34-2.555-1.707-5.744-2.58-8.638-1.676-2.895.903-5.292 3.87-5.102 7.077-1.045-.372-2.233.122-2.998.967-.765.844-1.176 1.98-1.47 3.11a20.624 20.624 0 0 0 .177 10.951l-.058.511c1.413-.244 2.484-1.51 3.15-2.858.666-1.349 1.05-2.845 1.771-4.16.722-1.317 1.921-2.49 3.351-2.531l-.126 2.284 3.692-1.987-.878 2.194 3.224-1.408-.36 2.11c1.065-2.534 4.361-3.647 6.603-2.23 1.302.823 2.156 2.289 2.606 3.829.45 1.54.538 3.169.624 4.779a17.395 17.395 0 0 0 1.003-11.622zM124.03 223.028l-.02-.056-.04.034.06.022z"
      fill="#2F2E41"
    />
        <path
      d="M148.994 214.145c-.122-2.523-1.27-4.871-3.156-6.45-.685-.568-1.477-1.046-1.93-1.827a12.83 12.83 0 0 1-.657-1.71c-.902-2.247-3.474-3.44-5.78-3.1-2.307.34-4.304 1.962-5.648 3.952a3.71 3.71 0 0 0-4.115.53c-1.155 1.002-1.647 2.614-1.261 4.13-1.195-1.006-3.127-.201-3.873 1.201-.746 1.402-.627 3.118-.406 4.705.402 2.87 1.071 5.691 1.998 8.424 1.163-1.071 1.092-3.022.95-4.671-.148-1.714-.06-3.806 1.373-4.651 1.384-.817 3.064.08 4.59.544a8.356 8.356 0 0 0 7.175-1.18c.795-.563 1.503-1.268 2.36-1.72.856-.452 1.947-.61 2.745-.051.728.51 1.025 1.46 1.272 2.34l1.763 6.251c1.745-1.747 2.691-4.192 2.6-6.717zM54.82 114.87c.1-1.022.144-2.049.136-3.076a14.094 14.094 0 0 0-1.126-5.929c-.984-2.079-2.74-3.723-4.916-4.605a9.229 9.229 0 0 0-6.724.006c-1.947-1.192-4.11-2.138-6.387-2.255-2.278-.117-4.686.702-6.09 2.506a9.68 9.68 0 0 1-1.063 1.34c-1.129 1.014-2.843.867-4.343.66l2.018 1.677-2.442.62 2.85 1.676c-2.758 1.605-4.012 5.11-3.681 8.292.313 3.014 1.813 5.769 3.607 8.218.715-1.464.561-3.216.55-4.865a10.68 10.68 0 0 1 .1-1.599c6.06 1.409 12.393 2.313 18.815.076l1.289-3.06c.18.019.362.036.542.054l.747 3.008c1.693.671 3.39 1.258 5.086.642.083.464.132.938.17 1.394.146-.545.273-1.094.386-1.646.225-.116.44-.25.643-.398a12.991 12.991 0 0 0-.167-2.736z"
      fill="#2F2E41"
    />
    </g>
</svg>
